<mxfile host="app.diagrams.net" agent="Mozilla/5.0 (Windows NT 10.0; Win64; x64) AppleWebKit/537.36 (KHTML, like Gecko) Chrome/133.0.0.0 Safari/537.36 Edg/133.0.0.0" version="26.0.14">
  <diagram name="Page-1" id="vQrHTw_IMuYHtTJR99oP">
    <mxGraphModel dx="1379" dy="749" grid="1" gridSize="10" guides="1" tooltips="1" connect="1" arrows="1" fold="1" page="1" pageScale="1" pageWidth="850" pageHeight="1100" math="0" shadow="0">
      <root>
        <mxCell id="0" />
        <mxCell id="1" parent="0" />
        <mxCell id="PQgtyc6N7RdXd20d69eU-1" value="Agente Router (Recibe Input y Distribuye Comandos)" style="whiteSpace=wrap;strokeWidth=2;fillColor=#1ba1e2;fontColor=#ffffff;strokeColor=#006EAF;" vertex="1" parent="1">
          <mxGeometry x="655" y="20" width="260" height="102" as="geometry" />
        </mxCell>
        <mxCell id="PQgtyc6N7RdXd20d69eU-2" value="Agente Email (Rechsteiner Construction)" style="whiteSpace=wrap;strokeWidth=2;fillColor=#60a917;fontColor=#ffffff;strokeColor=#2D7600;" vertex="1" parent="1">
          <mxGeometry x="20" y="195" width="260" height="78" as="geometry" />
        </mxCell>
        <mxCell id="PQgtyc6N7RdXd20d69eU-3" value="Agente Memorias (Base de Datos: Memories)" style="whiteSpace=wrap;strokeWidth=2;fillColor=#60a917;fontColor=#ffffff;strokeColor=#2D7600;" vertex="1" parent="1">
          <mxGeometry x="337" y="195" width="260" height="78" as="geometry" />
        </mxCell>
        <mxCell id="PQgtyc6N7RdXd20d69eU-4" value="Agente Calendario Trabajo 1 (Google Calendar)" style="whiteSpace=wrap;strokeWidth=2;fillColor=#60a917;fontColor=#ffffff;strokeColor=#2D7600;" vertex="1" parent="1">
          <mxGeometry x="655" y="195" width="260" height="78" as="geometry" />
        </mxCell>
        <mxCell id="PQgtyc6N7RdXd20d69eU-5" value="Agente Calendario Trabajo 2 (Google Calendar)" style="whiteSpace=wrap;strokeWidth=2;fillColor=#60a917;fontColor=#ffffff;strokeColor=#2D7600;" vertex="1" parent="1">
          <mxGeometry x="965" y="195" width="260" height="78" as="geometry" />
        </mxCell>
        <mxCell id="PQgtyc6N7RdXd20d69eU-6" value="Agente Tareas (Notion - CRUD)" style="whiteSpace=wrap;strokeWidth=2;fillColor=#60a917;fontColor=#ffffff;strokeColor=#2D7600;" vertex="1" parent="1">
          <mxGeometry x="1275" y="195" width="260" height="78" as="geometry" />
        </mxCell>
        <mxCell id="PQgtyc6N7RdXd20d69eU-7" value="Agente Investigador (SerpAPI)" style="whiteSpace=wrap;strokeWidth=2;fillColor=#60a917;fontColor=#ffffff;strokeColor=#2D7600;" vertex="1" parent="1">
          <mxGeometry x="1585" y="195" width="260" height="78" as="geometry" />
        </mxCell>
        <mxCell id="PQgtyc6N7RdXd20d69eU-8" value="Envía comando" style="curved=1;startArrow=none;endArrow=block;exitX=0;exitY=0.68;entryX=0.5;entryY=0;rounded=0;fillColor=#60a917;strokeColor=#2D7600;" edge="1" parent="1" source="PQgtyc6N7RdXd20d69eU-1" target="PQgtyc6N7RdXd20d69eU-2">
          <mxGeometry relative="1" as="geometry">
            <Array as="points">
              <mxPoint x="150" y="159" />
            </Array>
          </mxGeometry>
        </mxCell>
        <mxCell id="PQgtyc6N7RdXd20d69eU-9" value="Consulta información" style="curved=1;startArrow=none;endArrow=block;exitX=0;exitY=0.78;entryX=0.33;entryY=0;rounded=0;fillColor=#60a917;strokeColor=#2D7600;" edge="1" parent="1" source="PQgtyc6N7RdXd20d69eU-1" target="PQgtyc6N7RdXd20d69eU-3">
          <mxGeometry relative="1" as="geometry">
            <Array as="points">
              <mxPoint x="382" y="159" />
            </Array>
          </mxGeometry>
        </mxCell>
        <mxCell id="PQgtyc6N7RdXd20d69eU-10" value="Devuelve memorias" style="curved=1;startArrow=none;endArrow=block;exitX=0.67;exitY=0;entryX=0;entryY=0.98;rounded=0;fillColor=#60a917;strokeColor=#2D7600;" edge="1" parent="1" source="PQgtyc6N7RdXd20d69eU-3" target="PQgtyc6N7RdXd20d69eU-1">
          <mxGeometry relative="1" as="geometry">
            <Array as="points">
              <mxPoint x="552" y="159" />
            </Array>
          </mxGeometry>
        </mxCell>
        <mxCell id="PQgtyc6N7RdXd20d69eU-11" value="Gestiona eventos" style="curved=1;startArrow=none;endArrow=block;exitX=0.5;exitY=1;entryX=0.5;entryY=0;rounded=0;fillColor=#60a917;strokeColor=#2D7600;" edge="1" parent="1" source="PQgtyc6N7RdXd20d69eU-1" target="PQgtyc6N7RdXd20d69eU-4">
          <mxGeometry relative="1" as="geometry">
            <Array as="points" />
          </mxGeometry>
        </mxCell>
        <mxCell id="PQgtyc6N7RdXd20d69eU-12" value="Gestiona eventos" style="curved=1;startArrow=none;endArrow=block;exitX=1;exitY=0.86;entryX=0.5;entryY=0;rounded=0;fillColor=#60a917;strokeColor=#2D7600;" edge="1" parent="1" source="PQgtyc6N7RdXd20d69eU-1" target="PQgtyc6N7RdXd20d69eU-5">
          <mxGeometry relative="1" as="geometry">
            <Array as="points">
              <mxPoint x="1095" y="159" />
            </Array>
          </mxGeometry>
        </mxCell>
        <mxCell id="PQgtyc6N7RdXd20d69eU-13" value="Gestiona tareas" style="curved=1;startArrow=none;endArrow=block;exitX=1;exitY=0.68;entryX=0.5;entryY=0;rounded=0;fillColor=#60a917;strokeColor=#2D7600;" edge="1" parent="1" source="PQgtyc6N7RdXd20d69eU-1" target="PQgtyc6N7RdXd20d69eU-6">
          <mxGeometry relative="1" as="geometry">
            <Array as="points">
              <mxPoint x="1405" y="159" />
            </Array>
          </mxGeometry>
        </mxCell>
        <mxCell id="PQgtyc6N7RdXd20d69eU-14" value="Solicita búsquedas" style="curved=1;startArrow=none;endArrow=block;exitX=1;exitY=0.62;entryX=0.5;entryY=0;rounded=0;fillColor=#60a917;strokeColor=#2D7600;" edge="1" parent="1" source="PQgtyc6N7RdXd20d69eU-1" target="PQgtyc6N7RdXd20d69eU-7">
          <mxGeometry relative="1" as="geometry">
            <Array as="points">
              <mxPoint x="1715" y="159" />
            </Array>
          </mxGeometry>
        </mxCell>
      </root>
    </mxGraphModel>
  </diagram>
</mxfile>
